<svg width="46" height="46" viewBox="0 0 46 46" fill="none" xmlns="http://www.w3.org/2000/svg">
<g id="Btn cancelar">
<path id="Vector" d="M23 0C10.2944 0 0 10.2944 0 23C0 35.7056 10.2944 46 23 46C35.7056 46 46 35.7056 46 23C46 10.2944 35.7056 0 23 0ZM23 41.5484C12.752 41.5484 4.45161 33.248 4.45161 23C4.45161 12.752 12.752 4.45161 23 4.45161C33.248 4.45161 41.5484 12.752 41.5484 23C41.5484 33.248 33.248 41.5484 23 41.5484ZM32.4411 17.2315L26.6726 23L32.4411 28.7685C32.877 29.2044 32.877 29.9093 32.4411 30.3452L30.3452 32.4411C29.9093 32.877 29.2044 32.877 28.7685 32.4411L23 26.6726L17.2315 32.4411C16.7956 32.877 16.0907 32.877 15.6548 32.4411L13.5589 30.3452C13.123 29.9093 13.123 29.2044 13.5589 28.7685L19.3274 23L13.5589 17.2315C13.123 16.7956 13.123 16.0907 13.5589 15.6548L15.6548 13.5589C16.0907 13.123 16.7956 13.123 17.2315 13.5589L23 19.3274L28.7685 13.5589C29.2044 13.123 29.9093 13.123 30.3452 13.5589L32.4411 15.6548C32.877 16.0907 32.877 16.7956 32.4411 17.2315Z" fill="black"/>
</g>
</svg>
