<svg width="41" height="46" viewBox="0 0 41 46" fill="none" xmlns="http://www.w3.org/2000/svg">
<g id="Btn recordatorio">
<path id="Vector" d="M39.4764 32.5494C37.7406 30.6842 34.4928 27.8784 34.4928 18.6874C34.4928 11.7066 29.5981 6.11834 22.9982 4.74733V2.87499C22.9982 1.28746 21.7116 0 20.125 0C18.5384 0 17.2518 1.28746 17.2518 2.87499V4.74733C10.6519 6.11834 5.75723 11.7066 5.75723 18.6874C5.75723 27.8784 2.50939 30.6842 0.773614 32.5494C0.234554 33.1289 -0.00443006 33.8216 6.21167e-05 34.4999C0.0099449 35.9733 1.16623 37.3749 2.88404 37.3749H37.366C39.0838 37.3749 40.241 35.9733 40.2499 34.4999C40.2544 33.8216 40.0154 33.128 39.4764 32.5494ZM6.06719 33.0624C7.97367 30.5495 10.058 26.3843 10.0679 18.7396C10.0679 18.7216 10.0625 18.7054 10.0625 18.6874C10.0625 13.1297 14.5673 8.62497 20.125 8.62497C25.6827 8.62497 30.1875 13.1297 30.1875 18.6874C30.1875 18.7054 30.1821 18.7216 30.1821 18.7396C30.192 26.3852 32.2763 30.5504 34.1828 33.0624H6.06719ZM20.125 45.9999C23.2983 45.9999 25.8723 43.4258 25.8723 40.2499H14.3777C14.3777 43.4258 16.9517 45.9999 20.125 45.9999Z" fill="black"/>
</g>
</svg>
