<svg width="68" height="65" viewBox="0 0 68 65" fill="none" xmlns="http://www.w3.org/2000/svg">
<path id="cancelar" d="M61.4537 0H6.80555C3.32436 0 0.5 3.11414 0.5 6.9525V57.9375C0.5 61.7759 3.32436 64.89 6.80555 64.89H61.4537C64.9348 64.89 67.7592 61.7759 67.7592 57.9375V6.9525C67.7592 3.11414 64.9348 0 61.4537 0ZM50.4715 42.0771C51.102 42.7724 51.102 43.9021 50.4715 44.5974L45.1512 50.4636C44.5206 51.1588 43.496 51.1588 42.8654 50.4636L34.1296 40.7445L25.3938 50.4636C24.7632 51.1588 23.7386 51.1588 23.108 50.4636L17.7877 44.5974C17.1572 43.9021 17.1572 42.7724 17.7877 42.0771L26.6024 32.445L17.7877 22.8129C17.1572 22.1176 17.1572 20.9879 17.7877 20.2926L23.108 14.4264C23.7386 13.7312 24.7632 13.7312 25.3938 14.4264L34.1296 24.1455L42.8654 14.4264C43.496 13.7312 44.5206 13.7312 45.1512 14.4264L50.4715 20.2926C51.102 20.9879 51.102 22.1176 50.4715 22.8129L41.6568 32.445L50.4715 42.0771Z" fill="#C10303"/>
</svg>
