<svg width="66" height="65" viewBox="0 0 66 65" fill="none" xmlns="http://www.w3.org/2000/svg">
<path id="confirmar" d="M58.4353 64.8875H7.45223C3.61257 64.8875 0.5 61.7749 0.5 57.9353V6.95223C0.5 3.11257 3.61257 0 7.45223 0H58.4353C62.2749 0 65.3875 3.11257 65.3875 6.95223V57.9353C65.3875 61.7749 62.2749 64.8875 58.4353 64.8875ZM28.7889 50.6848L55.4392 24.0346C56.3441 23.1296 56.3441 21.6623 55.4392 20.7573L52.1619 17.4801C51.257 16.5751 49.7896 16.575 48.8845 17.4801L27.1502 39.2142L17.003 29.067C16.0981 28.162 14.6307 28.162 13.7256 29.067L10.4484 32.3442C9.54341 33.2492 9.54341 34.7166 10.4484 35.6215L25.5115 50.6847C26.4166 51.5899 27.8838 51.5899 28.7889 50.6848Z" fill="#1ECD2F"/>
</svg>
