<svg width="151" height="174" viewBox="0 0 151 174" fill="none" xmlns="http://www.w3.org/2000/svg">
<path id="Vector" d="M0.247375 156.873C0.247375 165.832 7.44789 173.101 16.3229 173.101H134.21C143.085 173.101 150.286 165.832 150.286 156.873V64.9129H0.247375V156.873ZM107.418 90.6076C107.418 88.3763 109.226 86.5506 111.437 86.5506H124.833C127.043 86.5506 128.852 88.3763 128.852 90.6076V104.131C128.852 106.363 127.043 108.188 124.833 108.188H111.437C109.226 108.188 107.418 106.363 107.418 104.131V90.6076ZM107.418 133.883C107.418 131.652 109.226 129.826 111.437 129.826H124.833C127.043 129.826 128.852 131.652 128.852 133.883V147.406C128.852 149.638 127.043 151.464 124.833 151.464H111.437C109.226 151.464 107.418 149.638 107.418 147.406V133.883ZM64.5496 90.6076C64.5496 88.3763 66.3581 86.5506 68.5685 86.5506H81.9648C84.1752 86.5506 85.9837 88.3763 85.9837 90.6076V104.131C85.9837 106.363 84.1752 108.188 81.9648 108.188H68.5685C66.3581 108.188 64.5496 106.363 64.5496 104.131V90.6076ZM64.5496 133.883C64.5496 131.652 66.3581 129.826 68.5685 129.826H81.9648C84.1752 129.826 85.9837 131.652 85.9837 133.883V147.406C85.9837 149.638 84.1752 151.464 81.9648 151.464H68.5685C66.3581 151.464 64.5496 149.638 64.5496 147.406V133.883ZM21.6815 90.6076C21.6815 88.3763 23.49 86.5506 25.7003 86.5506H39.0966C41.307 86.5506 43.1155 88.3763 43.1155 90.6076V104.131C43.1155 106.363 41.307 108.188 39.0966 108.188H25.7003C23.49 108.188 21.6815 106.363 21.6815 104.131V90.6076ZM21.6815 133.883C21.6815 131.652 23.49 129.826 25.7003 129.826H39.0966C41.307 129.826 43.1155 131.652 43.1155 133.883V147.406C43.1155 149.638 41.307 151.464 39.0966 151.464H25.7003C23.49 151.464 21.6815 149.638 21.6815 147.406V133.883ZM134.21 21.6376H118.135V5.40941C118.135 2.43424 115.723 0 112.776 0H102.059C99.1121 0 96.7007 2.43424 96.7007 5.40941V21.6376H53.8326V5.40941C53.8326 2.43424 51.4212 0 48.4741 0H37.757C34.8098 0 32.3985 2.43424 32.3985 5.40941V21.6376H16.3229C7.44789 21.6376 0.247375 28.9065 0.247375 37.8659V54.0941H150.286V37.8659C150.286 28.9065 143.085 21.6376 134.21 21.6376Z" fill="black"/>
</svg>
