<svg width="155" height="157" viewBox="0 0 155 157" fill="none" xmlns="http://www.w3.org/2000/svg">
<path id="Vector" d="M152.487 134.945L122.382 104.554C121.024 103.183 119.182 102.42 117.249 102.42H112.327C120.661 91.6602 125.613 78.1261 125.613 63.4031C125.613 28.379 97.5013 0 62.8067 0C28.112 0 0 28.379 0 63.4031C0 98.4273 28.112 126.806 62.8067 126.806C77.3911 126.806 90.7979 121.807 101.457 113.394V118.363C101.457 120.314 102.212 122.173 103.571 123.545L133.676 153.936C136.514 156.801 141.104 156.801 143.912 153.936L152.457 145.309C155.295 142.444 155.296 137.81 152.487 134.945ZM62.8067 102.42C41.4584 102.42 24.1564 84.9846 24.1564 63.4031C24.1564 41.8522 41.4282 24.3858 62.8067 24.3858C84.1549 24.3858 101.457 41.8217 101.457 63.4031C101.457 84.9541 84.1851 102.42 62.8067 102.42Z" fill="black"/>
</svg>
