<svg width="34" height="30" viewBox="0 0 34 30" fill="none" xmlns="http://www.w3.org/2000/svg">
<path id="Vector" d="M16.875 0C20.9525 0 24.2578 3.30527 24.2578 7.38281C24.2578 10.6793 19.4326 16.6875 17.584 18.8684C17.2096 19.3102 16.5398 19.3102 16.166 18.8684C14.3174 16.6875 9.49219 10.6793 9.49219 7.38281C9.49219 3.30527 12.7975 0 16.875 0ZM16.875 9.84375C18.2344 9.84375 19.3359 8.74219 19.3359 7.38281C19.3359 6.02344 18.2344 4.92188 16.875 4.92188C15.5156 4.92188 14.4141 6.02344 14.4141 7.38281C14.4141 8.74219 15.5156 9.84375 16.875 9.84375ZM32.5711 12.6533C32.919 12.7925 33.2173 13.0327 33.4274 13.343C33.6376 13.6533 33.7499 14.0194 33.75 14.3941V29.0613C33.75 29.7246 33.0803 30.1781 32.4645 29.932L24.375 26.25V12.593C24.893 11.6566 25.3166 10.7449 25.6201 9.87305L32.5711 12.6533ZM16.875 21.0744C17.6994 21.0744 18.4793 20.7123 19.0143 20.0807C20.1662 18.7213 21.3914 17.1732 22.5 15.5854V26.2494L11.25 29.9994V15.5859C12.3586 17.1732 13.5832 18.7219 14.7357 20.0812C15.2707 20.7123 16.0506 21.0744 16.875 21.0744ZM1.28555 9.44297L9.375 13.125V30L1.17891 26.7217C0.830921 26.5826 0.532608 26.3424 0.322468 26.0321C0.112328 25.7218 7.62939e-06 25.3556 3.8147e-06 24.9809V10.3137C3.8147e-06 9.65039 0.669731 9.19688 1.28555 9.44297Z" fill="white"/>
</svg>
