<svg width="34" height="34" viewBox="0 0 34 34" fill="none" xmlns="http://www.w3.org/2000/svg">
<path id="Vector" d="M33.5376 29.3952L26.9164 22.7751C26.6176 22.4763 26.2125 22.3103 25.7874 22.3103H24.7049C26.5379 19.9664 27.627 17.0183 27.627 13.8112C27.627 6.18182 21.4441 0 13.8135 0C6.18287 0 0 6.18182 0 13.8112C0 21.4405 6.18287 27.6223 13.8135 27.6223C17.0212 27.6223 19.9698 26.5333 22.3141 24.7007V25.783C22.3141 26.208 22.4802 26.613 22.779 26.9118L29.4002 33.5319C30.0245 34.156 31.0339 34.156 31.6515 33.5319L33.531 31.6528C34.1552 31.0286 34.1552 30.0193 33.5376 29.3952ZM13.8135 22.3103C9.11825 22.3103 5.31289 18.5123 5.31289 13.8112C5.31289 9.11669 9.1116 5.31198 13.8135 5.31198C18.5088 5.31198 22.3141 9.11005 22.3141 13.8112C22.3141 18.5056 18.5154 22.3103 13.8135 22.3103Z" fill="black"/>
</svg>
