<svg width="162" height="172" viewBox="0 0 162 172" fill="none" xmlns="http://www.w3.org/2000/svg">
<path id="Vector" d="M150.429 67.5714H98.3571V12.2857C98.3571 5.5017 93.1753 0 86.7857 0H75.2143C68.8247 0 63.6429 5.5017 63.6429 12.2857V67.5714H11.5714C5.18183 67.5714 0 73.0731 0 79.8571V92.1429C0 98.9269 5.18183 104.429 11.5714 104.429H63.6429V159.714C63.6429 166.498 68.8247 172 75.2143 172H86.7857C93.1753 172 98.3571 166.498 98.3571 159.714V104.429H150.429C156.818 104.429 162 98.9269 162 92.1429V79.8571C162 73.0731 156.818 67.5714 150.429 67.5714Z" fill="black"/>
</svg>
