<svg width="30" height="30" viewBox="0 0 30 30" fill="none" xmlns="http://www.w3.org/2000/svg">
<path id="Vector" d="M29.1445 21.199L22.5818 18.3865C22.3015 18.267 21.9899 18.2418 21.694 18.3148C21.3981 18.3877 21.1339 18.5547 20.9412 18.7908L18.0349 22.3416C13.4737 20.1911 9.80302 16.5204 7.65248 11.9592L11.2033 9.05294C11.4399 8.86056 11.6073 8.59635 11.6802 8.30032C11.7532 8.00428 11.7277 7.69254 11.6076 7.41229L8.79507 0.849678C8.6633 0.547569 8.43025 0.300907 8.13609 0.152224C7.84193 0.00354214 7.50512 -0.0378408 7.18372 0.0352115L1.08986 1.44148C0.779996 1.51304 0.503531 1.68751 0.305592 1.93642C0.107653 2.18534 -7.13807e-05 2.49399 3.54862e-08 2.81202C3.54862e-08 17.8416 12.1819 30 27.188 30C27.5061 30.0002 27.8149 29.8925 28.0639 29.6946C28.313 29.4966 28.4875 29.2201 28.5591 28.9101L29.9654 22.8163C30.0379 22.4933 29.9957 22.1551 29.8459 21.86C29.696 21.5648 29.448 21.3311 29.1445 21.199Z" fill="white"/>
</svg>
