<svg width="64" height="41" viewBox="0 0 64 41" fill="none" xmlns="http://www.w3.org/2000/svg">
<g id="Usuario">
<path id="Vector" d="M20.0124 0C8.95717 0 0 8.95717 0 20.0124C0 31.0677 8.95717 40.0248 20.0124 40.0248C31.0677 40.0248 40.0248 31.0677 40.0248 20.0124C40.0248 8.95717 31.0677 0 20.0124 0ZM20.0124 7.74674C23.9342 7.74674 27.1136 10.9261 27.1136 14.8479C27.1136 18.7697 23.9342 21.9491 20.0124 21.9491C16.0906 21.9491 12.9112 18.7697 12.9112 14.8479C12.9112 10.9261 16.0906 7.74674 20.0124 7.74674ZM20.0124 35.5059C15.2756 35.5059 11.031 33.3594 8.19057 30.0025C9.70764 27.1459 12.6772 25.1769 16.139 25.1769C16.3327 25.1769 16.5264 25.2092 16.712 25.2657C17.761 25.6046 18.8585 25.8225 20.0124 25.8225C21.1664 25.8225 22.2719 25.6046 23.3129 25.2657C23.4985 25.2092 23.6921 25.1769 23.8858 25.1769C27.3476 25.1769 30.3172 27.1459 31.8343 30.0025C28.9938 33.3594 24.7492 35.5059 20.0124 35.5059Z" fill="white"/>
<path id="Vector_2" d="M54.8219 25.3399L47.2731 17.5506C46.909 17.1749 46.909 16.5659 47.2731 16.1902L48.1535 15.2817C48.517 14.9067 49.106 14.906 49.4703 15.2801L55.4811 21.4533L61.4919 15.2801C61.8562 14.906 62.4452 14.9067 62.8087 15.2817L63.6891 16.1902C64.0532 16.5659 64.0532 17.175 63.6891 17.5506L56.1403 25.3399C55.7762 25.7156 55.186 25.7156 54.8219 25.3399Z" fill="white"/>
</g>
</svg>
